<?xml version="1.0" encoding="UTF-8"?>
<svg id="Layer_1" data-name="Layer 1" xmlns="http://www.w3.org/2000/svg" version="1.1" viewBox="0 0 1920 1920">
  <defs>
    <style>
      .cls-1, .cls-2 {
        fill: #000;
      }

      .cls-1, .cls-3 {
        stroke-width: 0px;
      }

      .cls-2 {
        stroke: #fff;
        stroke-miterlimit: 10;
      }

      .cls-3 {
        fill: #fff;
      }
    </style>
  </defs>
  <g>
    <g>
      <path class="cls-1" d="M1046.1,1794.6c-92.67,0-183.28-16.3-269.3-48.44-81.44-30.43-156.65-74.21-223.63-130.16,114.33,64.04,244.24,97.86,376.08,97.86,391.32,0,719.89-292.19,765.25-680.02,23.23,74.2,35.01,151.63,35.01,230.16,0,46.33-4.15,92.73-12.34,137.93-65.85,117.02-161.6,215.29-276.92,284.2-118.75,70.96-255.05,108.47-394.15,108.47ZM544.29,1609.8c-81.49-47.16-152.98-108.2-212.53-181.48-61.25-75.37-107.1-160.31-136.27-252.46,11.53-101.08,42.47-197.3,91.95-286.02-7.86,44.35-11.84,89.85-11.84,135.26,0,225.17,97.87,437.97,268.69,584.7ZM1402.42,1286.67c.39-7.43.58-15.05.58-22.67,0-70.27-15.97-137.46-47.47-199.71,11.09-39.17,16.71-79.85,16.71-120.93,0-119.63-46.84-231.53-131.96-315.44,72.74,35.63,134.28,90.5,178.12,158.85,45.59,71.08,69.69,153.49,69.69,238.33,0,94.95-29.62,185.36-85.68,261.57ZM534.11,1141.65c-31.1-61.84-46.87-128.54-46.87-198.29,0-59.67,11.69-117.56,34.73-172.05,22.26-52.63,54.13-99.9,94.72-140.5,40.59-40.59,87.86-72.46,140.5-94.72,54.49-23.05,112.38-34.73,172.05-34.73,114.73,0,223.26,43.66,305.95,123-59.32-28.04-122.91-42.26-189.09-42.26-235.29,0-429.56,183.81-442.32,418.51-31.64,42.71-55.08,90.16-69.67,141.04Z"/>
      <path class="cls-3" d="M286.44,892.68c-7.53,43.46-11.34,87.97-11.34,132.42,0,223.52,96.38,434.85,264.78,581.55-37.99-22.35-74.25-48.12-107.91-76.68-36.26-30.77-69.84-65.07-99.83-101.97-30.14-37.08-56.92-77.14-79.62-119.06-22.97-42.43-41.99-87.22-56.53-133.13,5.83-51.07,16.84-101.65,32.72-150.35,14.95-45.85,34.35-90.49,57.72-132.78M1694.71,1036.23c22.76,73.48,34.29,150.08,34.29,227.77,0,46.27-4.14,92.62-12.31,137.76-65.8,116.91-161.48,215.1-276.7,283.95-58.3,34.84-120.93,61.76-186.16,80.01-67.29,18.83-137.18,28.38-207.73,28.38-92.61,0-183.16-16.29-269.13-48.41-79.71-29.78-153.46-72.37-219.35-126.64,113.26,62.39,241.5,95.31,371.62,95.31,390.78,0,719.03-291.21,765.47-678.13M929.24,500.86c-244.39,0-442.5,198.11-442.5,442.5,0-244.39,198.11-442.5,442.5-442.5,119.98,0,228.79,47.74,308.5,125.27-79.71-77.53-188.52-125.27-308.5-125.27h0ZM929.24,500.86c-244.39,0-442.5,198.11-442.5,442.5,0-244.39,198.11-442.5,442.5-442.5,119.98,0,228.79,47.74,308.5,125.27-79.71-77.53-188.52-125.27-308.5-125.27h0ZM1046.1,582.6c-236.23,0-429.22,185.11-441.83,418.19-31.33,42.26-55.3,90.3-70.03,142.23-30.38-59.98-47.5-127.82-47.5-199.66,0,71.84,17.12,139.68,47.5,199.66,14.73-51.93,38.7-99.97,70.03-142.23,12.61-233.08,205.6-418.19,441.83-418.19,68.65,0,133.65,15.63,191.64,43.53-57.99-27.9-122.99-43.53-191.64-43.53h0ZM1046.1,582.6c-236.23,0-429.22,185.11-441.83,418.19-31.33,42.26-55.3,90.3-70.03,142.23-30.38-59.98-47.5-127.82-47.5-199.66,0,71.84,17.12,139.68,47.5,199.66,14.73-51.93,38.7-99.97,70.03-142.23,12.61-233.08,205.6-418.19,441.83-418.19,68.65,0,133.65,15.63,191.64,43.53-57.99-27.9-122.99-43.53-191.64-43.53h0ZM1237.74,626.13c148.42,71.43,250.86,223.23,250.86,398.97,0-175.74-102.44-327.54-250.86-398.97h0ZM1237.74,626.13c82.65,80.39,134,192.81,134,317.23,0-124.42-51.35-236.84-134-317.23h0ZM1237.74,626.13c82.65,80.39,134,192.81,134,317.23,0-124.42-51.35-236.84-134-317.23h0ZM1237.74,626.13c148.42,71.43,250.86,223.23,250.86,398.97,0-175.74-102.44-327.54-250.86-398.97h0ZM288.46,887c-49.07,87.19-81.63,184.91-93.48,288.91,58.95,186.3,186.85,341.96,353.74,437.01-166.76-141.24-272.62-352.17-272.62-587.82,0-47.14,4.24-93.3,12.36-138.1h0ZM1371.74,943.36c0,41.95-5.84,82.53-16.74,120.98,10.9-38.45,16.74-79.03,16.74-120.98h0ZM1371.74,943.36c0,41.95-5.84,82.53-16.74,120.98,10.9-38.45,16.74-79.03,16.74-120.98h0ZM1488.6,1025.1c0,98.6-32.24,189.65-86.77,263.21,54.53-73.56,86.77-164.61,86.77-263.21h0ZM1488.6,1025.1c0,98.6-32.24,189.65-86.77,263.21,54.53-73.56,86.77-164.61,86.77-263.21h0ZM1694.26,1031.45c-43.71,383.77-369.55,681.91-765.02,681.91-138.41,0-268.28-36.52-380.52-100.44,134.17,113.65,307.77,182.18,497.38,182.18,288.3,0,539.59-158.44,671.54-393,8.12-44.8,12.36-90.96,12.36-138.1,0-81.06-12.52-159.18-35.74-232.55h0ZM1355,1064.34c30.38,59.98,47.5,127.82,47.5,199.66,0-71.84-17.12-139.68-47.5-199.66h0ZM1355,1064.34c30.38,59.98,47.5,127.82,47.5,199.66,0-71.84-17.12-139.68-47.5-199.66h0ZM1402.5,1264c0,8.16-.22,16.26-.67,24.31.45-8.05.67-16.15.67-24.31h0ZM1402.5,1264c0,8.16-.22,16.26-.67,24.31.45-8.05.67-16.15.67-24.31h0Z"/>
    </g>
    <path class="cls-2" d="M784,853h0Z"/>
    <path class="cls-2" d="M962.5,667.5"/>
  </g>
  <g>
    <path class="cls-1" d="M1046.1,582.6c68.65,0,133.65,15.63,191.64,43.53-79.71-77.53-188.52-125.27-308.5-125.27-244.39,0-442.5,198.11-442.5,442.5,0,71.84,17.12,139.68,47.5,199.66,43.94,86.76,115.61,157.08,203.36,199.31-82.65-80.39-134-192.81-134-317.23,0-8.16.22-16.26.67-24.31,12.61-233.08,205.6-418.19,441.83-418.19ZM1046.1,582.6c68.65,0,133.65,15.63,191.64,43.53-79.71-77.53-188.52-125.27-308.5-125.27-244.39,0-442.5,198.11-442.5,442.5,0,71.84,17.12,139.68,47.5,199.66,43.94,86.76,115.61,157.08,203.36,199.31-82.65-80.39-134-192.81-134-317.23,0-8.16.22-16.26.67-24.31,12.61-233.08,205.6-418.19,441.83-418.19ZM1046.1,582.6c68.65,0,133.65,15.63,191.64,43.53-79.71-77.53-188.52-125.27-308.5-125.27-244.39,0-442.5,198.11-442.5,442.5,0,71.84,17.12,139.68,47.5,199.66,43.94,86.76,115.61,157.08,203.36,199.31-82.65-80.39-134-192.81-134-317.23,0-8.16.22-16.26.67-24.31,12.61-233.08,205.6-418.19,441.83-418.19ZM1426.62,355.54c166.76,141.24,272.62,352.17,272.62,587.82,0,29.79-1.69,59.18-4.98,88.09-43.71,383.77-369.55,681.91-765.02,681.91-138.41,0-268.28-36.52-380.52-100.44,134.17,113.65,307.77,182.18,497.38,182.18,288.3,0,539.59-158.44,671.54-393,62.7-111.43,98.46-240.04,98.46-377,0-286.85-156.86-537.07-389.48-669.56ZM737.6,1342.33c-82.65-80.39-134-192.81-134-317.23,0-8.16.22-16.26.67-24.31,12.61-233.08,205.6-418.19,441.83-418.19,68.65,0,133.65,15.63,191.64,43.53-79.71-77.53-188.52-125.27-308.5-125.27-244.39,0-442.5,198.11-442.5,442.5,0,71.84,17.12,139.68,47.5,199.66,43.94,86.76,115.61,157.08,203.36,199.31ZM1046.1,582.6c68.65,0,133.65,15.63,191.64,43.53-79.71-77.53-188.52-125.27-308.5-125.27-244.39,0-442.5,198.11-442.5,442.5,0,71.84,17.12,139.68,47.5,199.66,43.94,86.76,115.61,157.08,203.36,199.31-82.65-80.39-134-192.81-134-317.23,0-8.16.22-16.26.67-24.31,12.61-233.08,205.6-418.19,441.83-418.19ZM1046.1,582.6c68.65,0,133.65,15.63,191.64,43.53-79.71-77.53-188.52-125.27-308.5-125.27-244.39,0-442.5,198.11-442.5,442.5,0,71.84,17.12,139.68,47.5,199.66,43.94,86.76,115.61,157.08,203.36,199.31-82.65-80.39-134-192.81-134-317.23,0-8.16.22-16.26.67-24.31,12.61-233.08,205.6-418.19,441.83-418.19ZM1046.1,582.6c68.65,0,133.65,15.63,191.64,43.53-79.71-77.53-188.52-125.27-308.5-125.27-244.39,0-442.5,198.11-442.5,442.5,0,71.84,17.12,139.68,47.5,199.66,43.94,86.76,115.61,157.08,203.36,199.31-82.65-80.39-134-192.81-134-317.23,0-8.16.22-16.26.67-24.31,12.61-233.08,205.6-418.19,441.83-418.19Z"/>
    <path class="cls-1" d="M882.1,666.1h0Z"/>
    <path class="cls-1" d="M1060.6,480.6"/>
  </g>
  <g>
    <path class="cls-1" d="M1046.1,255.1c138.41,0,268.28,36.52,380.52,100.44-134.17-113.65-307.77-182.18-497.38-182.18-425.26,0-770,344.74-770,770,0,81.06,12.52,159.18,35.74,232.55,58.95,186.3,186.85,341.96,353.74,437.01-166.76-141.24-272.62-352.17-272.62-587.82,0-47.14,4.24-93.3,12.36-138.1,65.06-359.35,379.52-631.9,757.64-631.9ZM1237.74,626.13c82.65,80.39,134,192.81,134,317.23,0,41.95-5.84,82.53-16.74,120.98-52.63,185.58-223.32,321.52-425.76,321.52-68.65,0-133.65-15.63-191.64-43.53,79.71,77.53,188.52,125.27,308.5,125.27,145.8,0,275.12-70.51,355.73-179.29,54.53-73.56,86.77-164.61,86.77-263.21,0-175.74-102.44-327.54-250.86-398.97Z"/>
    <path class="cls-1" d="M753.24,532.36h0Z"/>
    <path class="cls-1" d="M931.74,346.86h0Z"/>
  </g>
</svg>